<svg xmlns = "http://www.w3.org/2000/svg" width = "1000" height = "1000">
<g>
<polygon points = "691.668, 587.992 691.465, 583.477 664.831, 564.410 653.863, 560.506 547.247, 622.227 585.310, 679.227 629.022, 688.092 "
fill = "white" stroke = "black"/>
</g>
<g>
<polygon points = "919.167, 168.435 905.992, 174.990 874.550, 303.154 874.708, 303.482 946.274, 271.632 1000.000, 200.733 1000.000, 166.512 "
fill = "white" stroke = "black"/>
</g>
<g>
<polygon points = "229.979, 568.268 273.518, 507.561 249.718, 448.164 223.658, 430.376 153.567, 469.178 151.893, 485.006 190.163, 541.238 "
fill = "white" stroke = "black"/>
</g>
<g>
<polygon points = "34.800, 517.877 0.000, 505.297 0.000, 633.148 73.866, 632.750 99.804, 613.562 101.389, 564.794 "
fill = "white" stroke = "black"/>
</g>
<g>
<polygon points = "909.034, 425.907 822.424, 385.002 754.839, 450.461 885.405, 500.692 914.033, 436.055 "
fill = "white" stroke = "black"/>
</g>
<g>
<polygon points = "949.225, 551.414 879.543, 524.634 843.732, 551.744 828.422, 617.134 829.566, 619.535 913.912, 654.202 "
fill = "white" stroke = "black"/>
</g>
<g>
<polygon points = "396.351, 894.591 277.407, 964.616 279.908, 1000.000 428.058, 1000.000 "
fill = "white" stroke = "black"/>
</g>
<g>
<polygon points = "400.215, 627.300 291.585, 642.271 263.932, 666.540 257.752, 681.832 368.240, 731.157 409.519, 687.250 "
fill = "white" stroke = "black"/>
</g>
<g>
<polygon points = "597.457, 895.877 685.650, 853.648 699.359, 828.430 658.268, 779.906 654.119, 778.891 545.440, 825.049 "
fill = "white" stroke = "black"/>
</g>
<g>
<polygon points = "790.714, 17.161 799.082, 67.905 887.109, 172.969 905.992, 174.990 919.167, 168.435 922.281, 129.163 815.013, 0.000 795.441, 0.000 "
fill = "white" stroke = "black"/>
</g>
<g>
<polygon points = "162.624, 671.880 190.163, 541.238 151.893, 485.006 101.389, 564.794 99.804, 613.562 "
fill = "white" stroke = "black"/>
</g>
<g>
<polygon points = "494.682, 931.590 460.240, 839.988 442.551, 842.758 405.498, 879.856 396.351, 894.591 428.058, 1000.000 458.466, 1000.000 "
fill = "white" stroke = "black"/>
</g>
<g>
<polygon points = "767.737, 303.779 726.331, 314.814 716.299, 409.788 735.388, 454.059 754.839, 450.461 822.424, 385.002 "
fill = "white" stroke = "black"/>
</g>
<g>
<polygon points = "290.019, 807.476 244.296, 867.270 405.498, 879.856 442.551, 842.758 409.461, 825.230 371.540, 808.604 "
fill = "white" stroke = "black"/>
</g>
<g>
<polygon points = "356.265, 389.615 301.645, 247.620 247.443, 253.939 235.050, 348.357 "
fill = "white" stroke = "black"/>
</g>
<g>
<polygon points = "862.144, 863.376 865.247, 852.820 813.054, 850.020 758.728, 855.815 731.451, 1000.000 755.715, 1000.000 "
fill = "white" stroke = "black"/>
</g>
<g>
<polygon points = "178.250, 694.140 142.725, 762.379 146.931, 777.082 280.140, 790.164 252.419, 688.154 "
fill = "white" stroke = "black"/>
</g>
<g>
<polygon points = "641.068, 289.564 639.748, 289.713 515.362, 394.385 515.236, 394.911 570.337, 447.971 639.184, 397.668 "
fill = "white" stroke = "black"/>
</g>
<g>
<polygon points = "222.660, 118.952 171.814, 141.769 170.877, 144.922 340.416, 227.189 371.790, 221.771 373.007, 221.174 372.112, 200.051 272.989, 120.411 "
fill = "white" stroke = "black"/>
</g>
<g>
<polygon points = "349.581, 76.072 382.939, 82.215 468.698, 41.830 490.697, 0.000 308.003, 0.000 "
fill = "white" stroke = "black"/>
</g>
<g>
<polygon points = "673.323, 415.352 639.184, 397.668 570.337, 447.971 574.948, 467.171 653.863, 560.506 664.831, 564.410 "
fill = "white" stroke = "black"/>
</g>
<g>
<polygon points = "151.152, 202.139 156.556, 315.191 213.097, 359.106 235.050, 348.357 247.443, 253.939 "
fill = "white" stroke = "black"/>
</g>
<g>
<polygon points = "681.417, 75.780 746.073, 190.120 799.082, 67.905 790.714, 17.161 "
fill = "white" stroke = "black"/>
</g>
<g>
<polygon points = "490.285, 683.538 409.461, 825.230 442.551, 842.758 460.240, 839.988 532.766, 822.042 533.472, 814.821 "
fill = "white" stroke = "black"/>
</g>
<g>
<polygon points = "96.962, 425.997 0.000, 339.991 0.000, 505.297 34.800, 517.877 "
fill = "white" stroke = "black"/>
</g>
<g>
<polygon points = "422.598, 159.300 382.939, 82.215 349.581, 76.072 272.989, 120.411 372.112, 200.051 "
fill = "white" stroke = "black"/>
</g>
<g>
<polygon points = "746.073, 190.120 746.157, 191.255 794.515, 209.881 887.109, 172.969 799.082, 67.905 "
fill = "white" stroke = "black"/>
</g>
<g>
<polygon points = "533.472, 814.821 532.766, 822.042 545.440, 825.049 654.119, 778.891 629.022, 688.092 585.310, 679.227 "
fill = "white" stroke = "black"/>
</g>
<g>
<polygon points = "82.740, 745.491 73.866, 632.750 0.000, 633.148 0.000, 774.153 "
fill = "white" stroke = "black"/>
</g>
<g>
<polygon points = "222.660, 118.952 272.989, 120.411 349.581, 76.072 308.003, 0.000 255.731, 0.000 "
fill = "white" stroke = "black"/>
</g>
<g>
<polygon points = "348.551, 541.379 394.120, 518.550 351.899, 429.805 249.718, 448.164 273.518, 507.561 "
fill = "white" stroke = "black"/>
</g>
<g>
<polygon points = "672.307, 271.388 641.068, 289.564 639.184, 397.668 673.323, 415.352 716.299, 409.788 726.331, 314.814 "
fill = "white" stroke = "black"/>
</g>
<g>
<polygon points = "489.709, 680.089 409.519, 687.250 368.240, 731.157 371.540, 808.604 409.461, 825.230 490.285, 683.538 "
fill = "white" stroke = "black"/>
</g>
<g>
<polygon points = "148.087, 804.903 173.061, 857.804 219.260, 888.372 244.296, 867.270 290.019, 807.476 280.140, 790.164 146.931, 777.082 "
fill = "white" stroke = "black"/>
</g>
<g>
<polygon points = "252.419, 688.154 280.140, 790.164 290.019, 807.476 371.540, 808.604 368.240, 731.157 257.752, 681.832 "
fill = "white" stroke = "black"/>
</g>
<g>
<polygon points = "530.398, 612.631 520.865, 595.783 439.769, 578.786 400.215, 627.300 409.519, 687.250 489.709, 680.089 "
fill = "white" stroke = "black"/>
</g>
<g>
<polygon points = "521.290, 591.727 479.038, 443.068 397.531, 518.711 439.769, 578.786 520.865, 595.783 "
fill = "white" stroke = "black"/>
</g>
<g>
<polygon points = "277.407, 964.616 220.002, 897.516 133.462, 968.996 119.138, 1000.000 279.908, 1000.000 "
fill = "white" stroke = "black"/>
</g>
<g>
<polygon points = "348.551, 541.379 273.518, 507.561 229.979, 568.268 263.932, 666.540 291.585, 642.271 "
fill = "white" stroke = "black"/>
</g>
<g>
<polygon points = "887.109, 172.969 794.515, 209.881 794.904, 284.344 874.550, 303.154 905.992, 174.990 "
fill = "white" stroke = "black"/>
</g>
<g>
<polygon points = "508.530, 332.724 399.881, 313.544 378.671, 395.204 493.514, 411.174 515.236, 394.911 515.362, 394.385 "
fill = "white" stroke = "black"/>
</g>
<g>
<polygon points = "220.002, 897.516 277.407, 964.616 396.351, 894.591 405.498, 879.856 244.296, 867.270 219.260, 888.372 "
fill = "white" stroke = "black"/>
</g>
<g>
<polygon points = "82.740, 745.491 142.725, 762.379 178.250, 694.140 162.624, 671.880 99.804, 613.562 73.866, 632.750 "
fill = "white" stroke = "black"/>
</g>
<g>
<polygon points = "468.698, 41.830 517.052, 174.347 519.953, 176.497 526.935, 170.428 568.164, 0.000 490.697, 0.000 "
fill = "white" stroke = "black"/>
</g>
<g>
<polygon points = "924.141, 679.289 913.912, 654.202 829.566, 619.535 801.377, 716.714 813.877, 741.043 887.273, 735.172 887.735, 735.081 "
fill = "white" stroke = "black"/>
</g>
<g>
<polygon points = "8.582, 37.599 114.992, 172.258 148.502, 189.615 170.877, 144.922 171.814, 141.769 153.625, 86.860 "
fill = "white" stroke = "black"/>
</g>
<g>
<polygon points = "133.462, 968.996 42.751, 900.267 0.000, 898.940 0.000, 1000.000 119.138, 1000.000 "
fill = "white" stroke = "black"/>
</g>
<g>
<polygon points = "132.108, 406.307 96.962, 425.997 34.800, 517.877 101.389, 564.794 151.893, 485.006 153.567, 469.178 "
fill = "white" stroke = "black"/>
</g>
<g>
<polygon points = "42.751, 900.267 133.462, 968.996 220.002, 897.516 219.260, 888.372 173.061, 857.804 "
fill = "white" stroke = "black"/>
</g>
<g>
<polygon points = "599.103, 915.731 597.457, 895.877 545.440, 825.049 532.766, 822.042 460.240, 839.988 494.682, 931.590 "
fill = "white" stroke = "black"/>
</g>
<g>
<polygon points = "946.274, 271.632 965.883, 450.559 1000.000, 464.498 1000.000, 200.733 "
fill = "white" stroke = "black"/>
</g>
<g>
<polygon points = "574.948, 467.171 570.337, 447.971 515.236, 394.911 493.514, 411.174 479.038, 443.068 521.290, 591.727 "
fill = "white" stroke = "black"/>
</g>
<g>
<polygon points = "922.281, 129.163 969.867, 0.000 815.013, 0.000 "
fill = "white" stroke = "black"/>
</g>
<g>
<polygon points = "508.697, 256.486 517.754, 246.427 519.953, 176.497 517.052, 174.347 422.598, 159.300 372.112, 200.051 373.007, 221.174 "
fill = "white" stroke = "black"/>
</g>
<g>
<polygon points = "740.017, 534.402 843.732, 551.744 879.543, 524.634 885.405, 500.692 754.839, 450.461 735.388, 454.059 "
fill = "white" stroke = "black"/>
</g>
<g>
<polygon points = "517.754, 246.427 508.697, 256.486 508.530, 332.724 515.362, 394.385 639.748, 289.713 "
fill = "white" stroke = "black"/>
</g>
<g>
<polygon points = "794.904, 284.344 767.737, 303.779 822.424, 385.002 909.034, 425.907 874.708, 303.482 874.550, 303.154 "
fill = "white" stroke = "black"/>
</g>
<g>
<polygon points = "153.625, 86.860 171.814, 141.769 222.660, 118.952 255.731, 0.000 169.152, 0.000 "
fill = "white" stroke = "black"/>
</g>
<g>
<polygon points = "148.007, 195.428 35.703, 287.644 121.762, 352.291 156.556, 315.191 151.152, 202.139 "
fill = "white" stroke = "black"/>
</g>
<g>
<polygon points = "672.307, 271.388 672.677, 270.040 567.314, 172.962 526.935, 170.428 519.953, 176.497 517.754, 246.427 639.748, 289.713 641.068, 289.564 "
fill = "white" stroke = "black"/>
</g>
<g>
<polygon points = "794.904, 284.344 794.515, 209.881 746.157, 191.255 688.542, 247.209 672.677, 270.040 672.307, 271.388 726.331, 314.814 767.737, 303.779 "
fill = "white" stroke = "black"/>
</g>
<g>
<polygon points = "397.531, 518.711 479.038, 443.068 493.514, 411.174 378.671, 395.204 366.876, 397.062 351.899, 429.805 394.120, 518.550 "
fill = "white" stroke = "black"/>
</g>
<g>
<polygon points = "942.052, 838.575 865.247, 852.820 862.144, 863.376 902.132, 1000.000 947.512, 1000.000 "
fill = "white" stroke = "black"/>
</g>
<g>
<polygon points = "439.769, 578.786 397.531, 518.711 394.120, 518.550 348.551, 541.379 291.585, 642.271 400.215, 627.300 "
fill = "white" stroke = "black"/>
</g>
<g>
<polygon points = "508.697, 256.486 373.007, 221.174 371.790, 221.771 399.881, 313.544 508.530, 332.724 "
fill = "white" stroke = "black"/>
</g>
<g>
<polygon points = "530.398, 612.631 489.709, 680.089 490.285, 683.538 533.472, 814.821 585.310, 679.227 547.247, 622.227 "
fill = "white" stroke = "black"/>
</g>
<g>
<polygon points = "366.876, 397.062 378.671, 395.204 399.881, 313.544 371.790, 221.771 340.416, 227.189 301.645, 247.620 356.265, 389.615 "
fill = "white" stroke = "black"/>
</g>
<g>
<polygon points = "740.017, 534.402 735.388, 454.059 716.299, 409.788 673.323, 415.352 664.831, 564.410 691.465, 583.477 "
fill = "white" stroke = "black"/>
</g>
<g>
<polygon points = "976.793, 812.243 942.052, 838.575 947.512, 1000.000 1000.000, 1000.000 1000.000, 810.643 "
fill = "white" stroke = "black"/>
</g>
<g>
<polygon points = "887.273, 735.172 813.877, 741.043 719.461, 827.046 758.728, 855.815 813.054, 850.020 "
fill = "white" stroke = "black"/>
</g>
<g>
<polygon points = "114.992, 172.258 8.582, 37.599 0.000, 31.995 0.000, 201.056 "
fill = "white" stroke = "black"/>
</g>
<g>
<polygon points = "178.250, 694.140 252.419, 688.154 257.752, 681.832 263.932, 666.540 229.979, 568.268 190.163, 541.238 162.624, 671.880 "
fill = "white" stroke = "black"/>
</g>
<g>
<polygon points = "599.103, 915.731 494.682, 931.590 458.466, 1000.000 617.853, 1000.000 "
fill = "white" stroke = "black"/>
</g>
<g>
<polygon points = "922.281, 129.163 919.167, 168.435 1000.000, 166.512 1000.000, 0.000 969.867, 0.000 "
fill = "white" stroke = "black"/>
</g>
<g>
<polygon points = "801.377, 716.714 829.566, 619.535 828.422, 617.134 722.239, 623.657 706.216, 723.921 "
fill = "white" stroke = "black"/>
</g>
<g>
<polygon points = "887.735, 735.081 887.273, 735.172 813.054, 850.020 865.247, 852.820 942.052, 838.575 976.793, 812.243 "
fill = "white" stroke = "black"/>
</g>
<g>
<polygon points = "924.141, 679.289 887.735, 735.081 976.793, 812.243 1000.000, 810.643 1000.000, 691.288 "
fill = "white" stroke = "black"/>
</g>
<g>
<polygon points = "949.225, 551.414 913.912, 654.202 924.141, 679.289 1000.000, 691.288 1000.000, 532.495 "
fill = "white" stroke = "black"/>
</g>
<g>
<polygon points = "722.239, 623.657 828.422, 617.134 843.732, 551.744 740.017, 534.402 691.465, 583.477 691.668, 587.992 "
fill = "white" stroke = "black"/>
</g>
<g>
<polygon points = "517.052, 174.347 468.698, 41.830 382.939, 82.215 422.598, 159.300 "
fill = "white" stroke = "black"/>
</g>
<g>
<polygon points = "654.119, 778.891 658.268, 779.906 706.216, 723.921 722.239, 623.657 691.668, 587.992 629.022, 688.092 "
fill = "white" stroke = "black"/>
</g>
<g>
<polygon points = "965.883, 450.559 914.033, 436.055 885.405, 500.692 879.543, 524.634 949.225, 551.414 1000.000, 532.495 1000.000, 464.498 "
fill = "white" stroke = "black"/>
</g>
<g>
<polygon points = "574.948, 467.171 521.290, 591.727 520.865, 595.783 530.398, 612.631 547.247, 622.227 653.863, 560.506 "
fill = "white" stroke = "black"/>
</g>
<g>
<polygon points = "0.000, 31.995 8.582, 37.599 153.625, 86.860 169.152, 0.000 0.000, 0.000 "
fill = "white" stroke = "black"/>
</g>
<g>
<polygon points = "862.144, 863.376 755.715, 1000.000 902.132, 1000.000 "
fill = "white" stroke = "black"/>
</g>
<g>
<polygon points = "351.899, 429.805 366.876, 397.062 356.265, 389.615 235.050, 348.357 213.097, 359.106 223.658, 430.376 249.718, 448.164 "
fill = "white" stroke = "black"/>
</g>
<g>
<polygon points = "213.097, 359.106 156.556, 315.191 121.762, 352.291 132.108, 406.307 153.567, 469.178 223.658, 430.376 "
fill = "white" stroke = "black"/>
</g>
<g>
<polygon points = "965.883, 450.559 946.274, 271.632 874.708, 303.482 909.034, 425.907 914.033, 436.055 "
fill = "white" stroke = "black"/>
</g>
<g>
<polygon points = "758.728, 855.815 719.461, 827.046 699.359, 828.430 685.650, 853.648 684.286, 1000.000 731.451, 1000.000 "
fill = "white" stroke = "black"/>
</g>
<g>
<polygon points = "526.935, 170.428 567.314, 172.962 630.720, 79.356 634.483, 60.429 578.780, 0.000 568.164, 0.000 "
fill = "white" stroke = "black"/>
</g>
<g>
<polygon points = "148.502, 189.615 114.992, 172.258 0.000, 201.056 0.000, 289.642 35.703, 287.644 148.007, 195.428 "
fill = "white" stroke = "black"/>
</g>
<g>
<polygon points = "634.483, 60.429 630.720, 79.356 688.542, 247.209 746.157, 191.255 746.073, 190.120 681.417, 75.780 "
fill = "white" stroke = "black"/>
</g>
<g>
<polygon points = "121.762, 352.291 35.703, 287.644 0.000, 289.642 0.000, 339.991 96.962, 425.997 132.108, 406.307 "
fill = "white" stroke = "black"/>
</g>
<g>
<polygon points = "719.461, 827.046 813.877, 741.043 801.377, 716.714 706.216, 723.921 658.268, 779.906 699.359, 828.430 "
fill = "white" stroke = "black"/>
</g>
<g>
<polygon points = "148.087, 804.903 146.931, 777.082 142.725, 762.379 82.740, 745.491 0.000, 774.153 0.000, 846.071 "
fill = "white" stroke = "black"/>
</g>
<g>
<polygon points = "42.751, 900.267 173.061, 857.804 148.087, 804.903 0.000, 846.071 0.000, 898.940 "
fill = "white" stroke = "black"/>
</g>
<g>
<polygon points = "340.416, 227.189 170.877, 144.922 148.502, 189.615 148.007, 195.428 151.152, 202.139 247.443, 253.939 301.645, 247.620 "
fill = "white" stroke = "black"/>
</g>
<g>
<polygon points = "630.720, 79.356 567.314, 172.962 672.677, 270.040 688.542, 247.209 "
fill = "white" stroke = "black"/>
</g>
<g>
<polygon points = "685.650, 853.648 597.457, 895.877 599.103, 915.731 617.853, 1000.000 684.286, 1000.000 "
fill = "white" stroke = "black"/>
</g>
<g>
<polygon points = "634.483, 60.429 681.417, 75.780 790.714, 17.161 795.441, 0.000 578.780, 0.000 "
fill = "white" stroke = "black"/>
</g>
<g>
<circle cx = "571.363" cy = "552.326" r = "3" />
<circle cx = "966.970" cy = "283.648" r = "3" />
<circle cx = "227.523" cy = "463.623" r = "3" />
<circle cx = "1.799" cy = "508.073" r = "3" />
<circle cx = "793.551" cy = "402.323" r = "3" />
<circle cx = "894.135" cy = "574.053" r = "3" />
<circle cx = "384.391" cy = "964.532" r = "3" />
<circle cx = "349.098" cy = "584.928" r = "3" />
<circle cx = "625.502" cy = "829.050" r = "3" />
<circle cx = "859.458" cy = "67.544" r = "3" />
<circle cx = "154.900" cy = "513.048" r = "3" />
<circle cx = "459.551" cy = "941.924" r = "3" />
<circle cx = "775.404" cy = "383.586" r = "3" />
<circle cx = "323.943" cy = "806.479" r = "3" />
<circle cx = "303.353" cy = "323.171" r = "3" />
<circle cx = "884.741" cy = "936.377" r = "3" />
<circle cx = "201.164" cy = "669.997" r = "3" />
<circle cx = "566.596" cy = "368.579" r = "3" />
<circle cx = "312.733" cy = "198.463" r = "3" />
<circle cx = "370.865" cy = "53.256" r = "3" />
<circle cx = "613.780" cy = "433.156" r = "3" />
<circle cx = "251.410" cy = "316.353" r = "3" />
<circle cx = "710.604" cy = "92.091" r = "3" />
<circle cx = "412.242" cy = "639.791" r = "3" />
<circle cx = "29.070" cy = "432.635" r = "3" />
<circle cx = "353.457" cy = "147.776" r = "3" />
<circle cx = "789.379" cy = "126.259" r = "3" />
<circle cx = "550.875" cy = "653.339" r = "3" />
<circle cx = "2.337" cy = "608.085" r = "3" />
<circle cx = "316.075" cy = "83.202" r = "3" />
<circle cx = "293.393" cy = "437.229" r = "3" />
<circle cx = "646.510" cy = "369.972" r = "3" />
<circle cx = "400.070" cy = "632.848" r = "3" />
<circle cx = "197.273" cy = "709.619" r = "3" />
<circle cx = "326.302" cy = "635.992" r = "3" />
<circle cx = "395.153" cy = "577.780" r = "3" />
<circle cx = "414.934" cy = "483.405" r = "3" />
<circle cx = "175.246" cy = "979.318" r = "3" />
<circle cx = "268.312" cy = "492.877" r = "3" />
<circle cx = "839.671" cy = "252.418" r = "3" />
<circle cx = "360.753" cy = "319.398" r = "3" />
<circle cx = "320.126" cy = "855.372" r = "3" />
<circle cx = "71.745" cy = "602.621" r = "3" />
<circle cx = "461.468" cy = "100.908" r = "3" />
<circle cx = "859.139" cy = "659.201" r = "3" />
<circle cx = "70.053" cy = "126.366" r = "3" />
<circle cx = "51.904" cy = "922.335" r = "3" />
<circle cx = "46.596" cy = "444.493" r = "3" />
<circle cx = "88.397" cy = "874.171" r = "3" />
<circle cx = "484.666" cy = "932.481" r = "3" />
<circle cx = "999.944" cy = "308.635" r = "3" />
<circle cx = "471.505" cy = "467.326" r = "3" />
<circle cx = "884.193" cy = "47.001" r = "3" />
<circle cx = "391.673" cy = "195.121" r = "3" />
<circle cx = "783.637" cy = "428.092" r = "3" />
<circle cx = "511.184" cy = "302.729" r = "3" />
<circle cx = "814.988" cy = "356.935" r = "3" />
<circle cx = "253.159" cy = "65.711" r = "3" />
<circle cx = "112.452" cy = "322.995" r = "3" />
<circle cx = "547.625" cy = "200.024" r = "3" />
<circle cx = "740.587" cy = "252.936" r = "3" />
<circle cx = "347.978" cy = "411.259" r = "3" />
<circle cx = "914.015" cy = "944.984" r = "3" />
<circle cx = "342.158" cy = "534.572" r = "3" />
<circle cx = "363.753" cy = "302.405" r = "3" />
<circle cx = "467.709" cy = "621.544" r = "3" />
<circle cx = "332.344" cy = "312.019" r = "3" />
<circle cx = "654.994" cy = "435.504" r = "3" />
<circle cx = "983.418" cy = "942.637" r = "3" />
<circle cx = "871.022" cy = "807.762" r = "3" />
<circle cx = "13.020" cy = "171.435" r = "3" />
<circle cx = "189.079" cy = "520.252" r = "3" />
<circle cx = "488.421" cy = "957.207" r = "3" />
<circle cx = "962.025" cy = "75.676" r = "3" />
<circle cx = "769.819" cy = "633.292" r = "3" />
<circle cx = "890.951" cy = "820.641" r = "3" />
<circle cx = "968.817" cy = "730.771" r = "3" />
<circle cx = "988.479" cy = "606.466" r = "3" />
<circle cx = "764.313" cy = "543.657" r = "3" />
<circle cx = "403.300" cy = "122.133" r = "3" />
<circle cx = "677.043" cy = "618.465" r = "3" />
<circle cx = "935.904" cy = "465.370" r = "3" />
<circle cx = "538.984" cy = "496.396" r = "3" />
<circle cx = "99.955" cy = "38.323" r = "3" />
<circle cx = "900.767" cy = "948.861" r = "3" />
<circle cx = "283.421" cy = "381.730" r = "3" />
<circle cx = "189.863" cy = "395.594" r = "3" />
<circle cx = "979.107" cy = "310.918" r = "3" />
<circle cx = "789.931" cy = "918.441" r = "3" />
<circle cx = "552.464" cy = "122.921" r = "3" />
<circle cx = "24.000" cy = "215.275" r = "3" />
<circle cx = "629.124" cy = "138.166" r = "3" />
<circle cx = "35.740" cy = "425.115" r = "3" />
<circle cx = "775.053" cy = "702.405" r = "3" />
<circle cx = "39.777" cy = "716.162" r = "3" />
<circle cx = "56.441" cy = "776.105" r = "3" />
<circle cx = "293.448" cy = "238.206" r = "3" />
<circle cx = "593.226" cy = "150.532" r = "3" />
<circle cx = "667.760" cy = "917.303" r = "3" />
<circle cx = "669.351" cy = "15.175" r = "3" />
</g>
</svg>
